<svg xmlns="http://www.w3.org/2000/svg" viewBox="0 0 1440 320"><path fill="#ffffff" fill-opacity="1" d="M0,192L30,170.7C60,149,120,107,180,122.7C240,139,300,213,360,218.7C420,224,480,160,540,128C600,96,660,96,720,101.3C780,107,840,117,900,144C960,171,1020,213,1080,234.7C1140,256,1200,256,1260,218.7C1320,181,1380,107,1410,69.3L1440,32L1440,0L1410,0C1380,0,1320,0,1260,0C1200,0,1140,0,1080,0C1020,0,960,0,900,0C840,0,780,0,720,0C660,0,600,0,540,0C480,0,420,0,360,0C300,0,240,0,180,0C120,0,60,0,30,0L0,0Z"></path></svg>
